# This file uses meters as units for non-parametric coordinates.

mtllib Platte steen.mtl
g default
v 907.797983 132.326665 -558.938001
v 1309.880800 132.326665 -563.244959
v 922.717641 155.027296 -567.020948
v 1290.577333 155.027296 -570.961310
v 875.597067 155.027296 -652.506181
v 1243.790902 155.027296 -711.962014
v 856.293600 132.326665 -652.376181
v 1258.741653 132.326665 -717.363413
v 1026.497080 132.326665 -575.642177
v 1031.313735 155.027296 -582.303354
v 953.306540 155.027296 -717.934140
v 946.645358 132.326665 -726.574392
v 1146.856126 132.326665 -513.184761
v 1142.392749 155.027296 -525.161977
v 1116.837958 155.027296 -767.369479
v 1119.977899 132.326665 -779.346686
v 1215.351115 132.326665 -555.549863
v 1205.089450 155.027296 -563.921191
v 1184.367586 155.027296 -746.776179
v 1193.790014 132.326665 -755.416431
vt 0.125667 0.472392
vt 0.820131 0.191998
vt 0.216168 0.488444
vt 0.710143 0.255607
vt 0.182919 0.638640
vt 0.782400 0.467340
vt 0.043079 0.984925
vt 0.052886 0.860073
vt 0.078337 0.939686
vt 0.372491 0.435300
vt 0.342409 0.679379
vt 0.027487 0.952569
vt 0.105716 0.908290
vt 0.478286 0.300574
vt 0.619893 0.627424
vt 0.024313 0.896997
vt 0.098040 0.884769
vt 0.590794 0.302953
vt 0.712022 0.556606
vt 0.036813 0.876700
vt 0.749741 0.581379
vt 0.831251 0.474690
vt 0.699077 0.518252
vt 0.752517 0.441490
vt 0.628868 0.246758
vt 0.777674 0.227443
vt 0.642689 0.199931
vt 0.102604 0.855992
vt 0.641832 0.666273
vt 0.624244 0.584536
vt 0.501188 0.230845
vt 0.490858 0.186928
vt 0.337813 0.723954
vt 0.369197 0.635384
vt 0.350709 0.395427
vt 0.318533 0.365220
vt 0.137442 0.667101
vt 0.074709 0.976332
vt 0.173996 0.482703
vt 0.216822 0.613233
vn 0.134837 0.252544 0.958144
vn -0.177312 0.316450 0.931890
vn -0.178611 0.316655 0.931573
vn 0.134837 0.252544 0.958144
vn 0.000000 1.000000 0.000000
vn 0.000000 1.000000 -0.000000
vn 0.000000 1.000000 -0.000000
vn 0.000000 1.000000 0.000000
vn -0.569359 0.454071 -0.685310
vn -0.389772 0.437519 -0.810342
vn -0.387155 0.437142 -0.811799
vn -0.569359 0.454071 -0.685310
vn 0.000000 -1.000000 0.000000
vn 0.000000 -1.000000 -0.000000
vn 0.000000 -1.000000 -0.000000
vn 0.000000 -1.000000 0.000000
vn 0.777535 0.573477 -0.257999
vn 0.777535 0.573477 -0.257999
vn 0.777535 0.573477 -0.257999
vn 0.777535 0.573477 -0.257999
vn -0.701464 0.598703 0.386656
vn -0.701464 0.598703 0.386656
vn -0.701464 0.598703 0.386656
vn -0.701464 0.598703 0.386656
vn -0.092692 0.445071 0.890685
vn -0.096200 0.444343 0.890677
vn 0.000000 1.000000 -0.000000
vn 0.000000 1.000000 -0.000000
vn -0.108358 0.441975 -0.890459
vn -0.106532 0.442215 -0.890560
vn 0.000000 -1.000000 -0.000000
vn 0.000000 -1.000000 -0.000000
vn 0.264188 0.437493 0.859537
vn 0.265194 0.437777 0.859083
vn 0.000000 1.000000 -0.000000
vn 0.000000 1.000000 -0.000000
vn 0.357303 0.468625 -0.807914
vn 0.356650 0.468569 -0.808235
vn 0.000000 -1.000000 -0.000000
vn 0.000000 -1.000000 -0.000000
vn 0.075582 0.376408 0.923366
vn 0.075582 0.376408 0.923366
vn 0.000000 1.000000 -0.000000
vn 0.000000 1.000000 -0.000000
vn 0.445123 0.473940 -0.759768
vn 0.445123 0.473940 -0.759768
vn 0.000000 -1.000000 -0.000000
vn 0.000000 -1.000000 -0.000000
s 1
g Platte_steen_naast_het_water
usemtl initialShadingGroup
f 1/1/1 9/36/2 10/35/3 3/39/4
s 2
f 3/3/5 10/10/6 11/34/7 5/40/8
s 3
f 5/5/9 11/11/10 12/33/11 7/37/12
s 4
f 7/7/13 12/12/14 9/9/15 1/38/16
s off
f 2/2/17 8/22/18 6/6/19 4/26/20
f 7/37/21 1/1/22 3/39/23 5/5/24
s 1
f 10/35/3 9/36/2 13/32/25 14/31/26
s 2
f 11/34/7 10/10/6 14/14/27 15/30/28
s 3
f 12/33/11 11/11/10 15/15/29 16/29/30
s 4
f 9/9/15 12/12/14 16/16/31 13/13/32
s 1
f 14/31/26 13/32/25 17/27/33 18/25/34
s 2
f 15/30/28 14/14/27 18/18/35 19/23/36
s 3
f 16/29/30 15/15/29 19/19/37 20/21/38
s 4
f 13/13/32 16/16/31 20/20/39 17/17/40
s 1
f 18/25/34 17/27/33 2/2/41 4/26/42
s 2
f 19/23/36 18/18/35 4/4/43 6/24/44
s 3
f 20/21/38 19/19/37 6/6/45 8/22/46
s 4
f 17/17/40 20/20/39 8/8/47 2/28/48
