# This file uses meters as units for non-parametric coordinates.

mtllib Stronk onder.mtl
g default
v 1536.313779 334.214974 1120.270413
v 1543.014122 330.068542 1113.601007
v 1548.435432 323.473683 1108.321745
v 1552.047044 315.075953 1104.949408
v 1553.495413 305.697380 1103.814100
v 1552.638786 296.256003 1105.026927
v 1549.561011 287.676012 1108.469196
v 1544.563339 280.797274 1113.803955
v 1538.135005 276.293130 1120.508990
v 1530.905254 274.604472 1127.927946
v 1523.581777 275.896600 1135.334633
v 1516.881434 280.043032 1142.004044
v 1511.460125 286.637886 1147.283297
v 1507.848522 295.035612 1150.655642
v 1506.400133 304.414181 1151.790951
v 1507.256770 313.855553 1150.578125
v 1510.334546 322.435543 1147.135846
v 1515.332206 329.314281 1141.801102
v 1521.760551 333.818426 1135.096061
v 1528.990303 335.507083 1127.677096
v 1490.550643 332.554134 1066.392218
v 1492.716960 328.254220 1057.071712
v 1494.511465 321.537993 1050.012642
v 1495.778898 313.062580 1045.674953
v 1496.419527 303.657239 1044.207002
v 1496.370650 294.242631 1045.752474
v 1495.637045 285.740323 1050.160092
v 1494.266188 278.982953 1057.274659
v 1492.371869 274.632290 1066.630794
v 1490.123168 273.114455 1077.498304
v 1487.741137 274.578010 1088.802728
v 1485.473023 278.879479 1099.277781
v 1483.557900 285.597543 1107.704756
v 1482.194552 294.074417 1113.130388
v 1481.520641 303.480263 1114.975824
v 1481.602800 312.894358 1113.052869
v 1482.432320 321.395199 1107.557306
v 1483.923796 328.150727 1099.074837
v 1485.919911 332.499836 1088.564153
v 1488.208218 334.017066 1077.247454
v 1383.575728 330.782080 1035.903228
v 1385.497392 326.218834 1026.779411
v 1387.132482 319.097474 1019.553124
v 1388.320942 310.115096 1014.931736
v 1388.946439 300.150958 1013.367606
v 1388.947744 290.180417 1015.013844
v 1388.324730 281.179460 1019.709308
v 1387.138380 274.029163 1026.994385
v 1385.504827 269.429449 1036.155936
v 1383.583971 267.830563 1046.297184
v 1381.563836 269.389020 1056.425426
v 1379.642173 273.952266 1065.549234
v 1378.007086 281.073621 1072.775520
v 1376.818624 290.055993 1077.396918
v 1376.193126 300.020128 1078.961047
v 1376.191823 309.990665 1077.314802
v 1376.814837 318.991619 1072.619338
v 1378.001183 326.141916 1065.334270
v 1379.634737 330.741631 1056.172721
v 1381.555595 332.340517 1046.031476
v 1529.947777 305.055781 1127.802540
v 1382.569783 300.085543 1046.164330
v 1402.326969 329.682058 1042.581202
v 1400.596970 331.159033 1052.170612
v 1398.960695 329.655240 1061.772292
v 1397.578314 325.317864 1070.446369
v 1396.585145 318.571476 1077.343765
v 1396.078406 310.076459 1081.789316
v 1396.107698 300.664367 1083.347861
v 1396.670157 291.256518 1081.866836
v 1397.710724 282.773819 1077.491213
v 1399.127541 276.046616 1070.649314
v 1400.781921 271.733416 1062.010865
v 1402.511920 270.256421 1052.421462
v 1404.148197 271.760216 1042.819779
v 1405.530576 276.097589 1034.145701
v 1406.523746 282.843978 1027.248298
v 1407.030484 291.338996 1022.802745
v 1407.001192 300.751093 1021.244205
v 1406.438735 310.158945 1022.725224
v 1405.398166 318.641649 1027.100848
v 1403.981350 325.368857 1033.942752
vt 0.200033 0.656824
vt 0.197153 0.624059
vt 0.193317 0.615204
vt 0.187330 0.609524
vt 0.180196 0.607629
vt 0.173072 0.609789
vt 0.167108 0.615771
vt 0.163320 0.625010
vt 0.162463 0.636612
vt 0.164957 0.649446
vt 0.170869 0.662247
vt 0.179936 0.673749
vt 0.191621 0.682832
vt 0.205181 0.688645
vt 0.219734 0.690675
vt 0.234285 0.688906
vt 0.247833 0.683356
vt 0.259490 0.674534
vt 0.268513 0.663283
vt 0.274361 0.650715
vt 0.129945 0.752377
vt 0.055796 0.754170
vt 0.063189 0.755816
vt 0.070497 0.756737
vt 0.077831 0.757043
vt 0.085161 0.756647
vt 0.092460 0.755653
vt 0.099840 0.753983
vt 0.107511 0.751610
vt 0.115687 0.748638
vt 0.124370 0.745378
vt 0.133332 0.742283
vt 0.142259 0.739823
vt 0.150942 0.738340
vt 0.159399 0.737994
vt 0.167867 0.738655
vt 0.176578 0.740437
vt 0.185563 0.743163
vt 0.194623 0.746476
vt 0.203445 0.749909
vt 0.201038 0.880556
vt 0.198583 0.912407
vt 0.194379 0.921242
vt 0.187976 0.926832
vt 0.180411 0.928637
vt 0.172832 0.926419
vt 0.166388 0.920426
vt 0.162108 0.911216
vt 0.160795 0.899664
vt 0.162946 0.886877
vt 0.168704 0.874090
vt 0.177864 0.862544
vt 0.189893 0.853372
vt 0.203994 0.847473
vt 0.219176 0.845423
vt 0.234346 0.847530
vt 0.248428 0.853485
vt 0.260439 0.862708
vt 0.269598 0.874289
vt 0.275402 0.887074
vt 0.280558 0.600589
vt 0.280558 0.936089
vt 0.125783 0.824908
vt 0.195803 0.821741
vt 0.188076 0.819990
vt 0.180455 0.818351
vt 0.172933 0.817001
vt 0.165480 0.816103
vt 0.158055 0.815772
vt 0.150613 0.816049
vt 0.143118 0.816900
vt 0.135529 0.818212
vt 0.127813 0.819829
vt 0.119966 0.821575
vt 0.112013 0.823289
vt 0.104004 0.824837
vt 0.095984 0.826117
vt 0.087981 0.827053
vt 0.079997 0.827595
vt 0.072006 0.827811
vt 0.063990 0.827635
vt 0.055959 0.827127
vn 0.137321 0.979633 -0.146499
vn 0.372683 0.856546 -0.356982
vn 0.262223 0.827793 -0.495982
vn 0.137528 0.957496 -0.253548
vn 0.559085 0.633235 -0.535199
vn 0.366635 0.611366 -0.701292
vn 0.677237 0.342316 -0.651283
vn 0.440142 0.328661 -0.835618
vn 0.723280 0.019899 -0.690268
vn 0.472113 0.011214 -0.881467
vn 0.697573 -0.304442 -0.648619
vn 0.460136 -0.307227 -0.832999
vn 0.597900 -0.601244 -0.530114
vn 0.404500 -0.592877 -0.696331
vn 0.425849 -0.834350 -0.350017
vn 0.313837 -0.813738 -0.489220
vn 0.198632 -0.970243 -0.138469
vn 0.197475 -0.949019 -0.245696
vn -0.052604 -0.996181 0.069688
vn 0.061030 -0.998127 0.004186
vn -0.291277 -0.924493 0.245907
vn -0.091494 -0.965379 0.244279
vn -0.497284 -0.778880 0.382171
vn -0.247970 -0.848663 0.467206
vn -0.665734 -0.569335 0.482344
vn -0.393322 -0.642895 0.657255
vn -0.780401 -0.309946 0.543054
vn -0.503637 -0.354346 0.787901
vn -0.826507 -0.023671 0.562428
vn -0.551937 -0.013920 0.833770
vn -0.798472 0.264765 0.540687
vn -0.525107 0.328479 0.785089
vn -0.700311 0.530338 0.477814
vn -0.433103 0.622302 0.652044
vn -0.545332 0.749219 0.375877
vn -0.300917 0.835225 0.460270
vn -0.348844 0.906361 0.238366
vn -0.152024 0.959702 0.236350
vn -0.115101 0.991448 0.061502
vn -0.001797 0.999990 -0.004043
vn 0.147214 0.808476 -0.569820
vn 0.072548 0.947463 -0.311530
vn 0.211361 0.588280 -0.780547
vn 0.257112 0.310913 -0.915001
vn 0.279517 0.004834 -0.960128
vn 0.276373 -0.301666 -0.912478
vn 0.248103 -0.580244 -0.775733
vn 0.197861 -0.802293 -0.563185
vn 0.132007 -0.943565 -0.303742
vn 0.056187 -0.998001 -0.028948
vn -0.027472 -0.970168 0.240873
vn -0.118467 -0.860037 0.496287
vn -0.210571 -0.658630 0.722403
vn -0.286490 -0.364192 0.886164
vn -0.323415 -0.006272 0.946236
vn -0.309033 0.352755 0.883211
vn -0.251718 0.650023 0.717013
vn -0.172391 0.854951 0.489223
vn -0.088428 0.968475 0.232888
vn -0.006614 0.999287 -0.037174
vn 0.713066 0.025307 0.700640
vn 0.713066 0.025307 0.700640
vn 0.713066 0.025307 0.700640
vn 0.713066 0.025307 0.700640
vn 0.713066 0.025307 0.700640
vn 0.713066 0.025306 0.700640
vn 0.713067 0.025307 0.700640
vn 0.713066 0.025307 0.700640
vn 0.713066 0.025307 0.700640
vn 0.713066 0.025306 0.700640
vn 0.713066 0.025306 0.700640
vn 0.713067 0.025306 0.700639
vn 0.713066 0.025306 0.700640
vn 0.713066 0.025306 0.700640
vn 0.713066 0.025307 0.700640
vn 0.713065 0.025307 0.700641
vn 0.713066 0.025307 0.700640
vn 0.713066 0.025307 0.700640
vn 0.713066 0.025307 0.700640
vn 0.713066 0.025307 0.700640
vn 0.713065 0.025307 0.700641
vn -0.981115 -0.031635 -0.190821
vn -0.981115 -0.031635 -0.190821
vn -0.981115 -0.031635 -0.190821
vn -0.981115 -0.031635 -0.190821
vn -0.981115 -0.031635 -0.190821
vn -0.981115 -0.031635 -0.190821
vn -0.981115 -0.031635 -0.190821
vn -0.981115 -0.031635 -0.190821
vn -0.981115 -0.031635 -0.190821
vn -0.981115 -0.031635 -0.190821
vn -0.981115 -0.031635 -0.190821
vn -0.981115 -0.031635 -0.190821
vn -0.981115 -0.031635 -0.190821
vn -0.981115 -0.031635 -0.190821
vn -0.981115 -0.031635 -0.190821
vn -0.981115 -0.031635 -0.190821
vn -0.981115 -0.031635 -0.190821
vn -0.981115 -0.031635 -0.190821
vn -0.981115 -0.031635 -0.190821
vn -0.981115 -0.031635 -0.190821
vn -0.981115 -0.031635 -0.190821
vn 0.171984 0.928538 -0.328997
vn 0.079557 0.995355 -0.054210
vn -0.013526 0.971681 0.235910
vn -0.098884 0.850782 0.516132
vn -0.166886 0.634409 0.754768
vn -0.207966 0.338709 0.917620
vn -0.215083 -0.002740 0.976592
vn -0.186514 -0.343542 0.920430
vn -0.126896 -0.637407 0.760006
vn -0.045374 -0.851037 0.523142
vn 0.047483 -0.968637 0.243902
vn 0.141946 -0.988803 -0.046038
vn 0.230063 -0.918575 -0.321389
vn 0.305344 -0.768405 -0.562423
vn 0.361899 -0.551215 -0.751792
vn 0.394462 -0.284451 -0.873778
vn 0.399432 0.008783 -0.916721
vn 0.376039 0.301469 -0.876191
vn 0.326751 0.566655 -0.756397
vn 0.256614 0.781415 -0.568806
s 1
g pCylinder13 Stronk_onder
usemtl initialShadingGroup
f 1/1/1 2/2/2 22/22/3 21/21/4
f 2/2/2 3/3/5 23/23/6 22/22/3
f 3/3/5 4/4/7 24/24/8 23/23/6
f 4/4/7 5/5/9 25/25/10 24/24/8
f 5/5/9 6/6/11 26/26/12 25/25/10
f 6/6/11 7/7/13 27/27/14 26/26/12
f 7/7/13 8/8/15 28/28/16 27/27/14
f 8/8/15 9/9/17 29/29/18 28/28/16
f 9/9/17 10/10/19 30/30/20 29/29/18
f 10/10/19 11/11/21 31/31/22 30/30/20
f 11/11/21 12/12/23 32/32/24 31/31/22
f 12/12/23 13/13/25 33/33/26 32/32/24
f 13/13/25 14/14/27 34/34/28 33/33/26
f 14/14/27 15/15/29 35/35/30 34/34/28
f 15/15/29 16/16/31 36/36/32 35/35/30
f 16/16/31 17/17/33 37/37/34 36/36/32
f 17/17/33 18/18/35 38/38/36 37/37/34
f 18/18/35 19/19/37 39/39/38 38/38/36
f 19/19/37 20/20/39 40/40/40 39/39/38
f 20/20/39 1/1/1 21/21/4 40/40/40
f 21/21/4 22/22/3 82/82/41 63/63/42
f 22/22/3 23/23/6 81/81/43 82/82/41
f 23/23/6 24/24/8 80/80/44 81/81/43
f 24/24/8 25/25/10 79/79/45 80/80/44
f 25/25/10 26/26/12 78/78/46 79/79/45
f 26/26/12 27/27/14 77/77/47 78/78/46
f 27/27/14 28/28/16 76/76/48 77/77/47
f 28/28/16 29/29/18 75/75/49 76/76/48
f 29/29/18 30/30/20 74/74/50 75/75/49
f 30/30/20 31/31/22 73/73/51 74/74/50
f 31/31/22 32/32/24 72/72/52 73/73/51
f 32/32/24 33/33/26 71/71/53 72/72/52
f 33/33/26 34/34/28 70/70/54 71/71/53
f 34/34/28 35/35/30 69/69/55 70/70/54
f 35/35/30 36/36/32 68/68/56 69/69/55
f 36/36/32 37/37/34 67/67/57 68/68/56
f 37/37/34 38/38/36 66/66/58 67/67/57
f 38/38/36 39/39/38 65/65/59 66/66/58
f 39/39/38 40/40/40 64/64/60 65/65/59
f 40/40/40 21/21/4 63/63/42 64/64/60
s 2
f 2/2/61 1/1/62 61/61/63
f 3/3/64 2/2/61 61/61/63
f 4/4/65 3/3/64 61/61/63
f 5/5/66 4/4/65 61/61/63
f 6/6/67 5/5/66 61/61/63
f 7/7/68 6/6/67 61/61/63
f 8/8/69 7/7/68 61/61/63
f 9/9/70 8/8/69 61/61/63
f 10/10/71 9/9/70 61/61/63
f 11/11/72 10/10/71 61/61/63
f 12/12/73 11/11/72 61/61/63
f 13/13/74 12/12/73 61/61/63
f 14/14/75 13/13/74 61/61/63
f 15/15/76 14/14/75 61/61/63
f 16/16/77 15/15/76 61/61/63
f 17/17/78 16/16/77 61/61/63
f 18/18/79 17/17/78 61/61/63
f 19/19/80 18/18/79 61/61/63
f 20/20/81 19/19/80 61/61/63
f 1/1/62 20/20/81 61/61/63
s 3
f 41/41/82 42/42/83 62/62/84
f 42/42/83 43/43/85 62/62/84
f 43/43/85 44/44/86 62/62/84
f 44/44/86 45/45/87 62/62/84
f 45/45/87 46/46/88 62/62/84
f 46/46/88 47/47/89 62/62/84
f 47/47/89 48/48/90 62/62/84
f 48/48/90 49/49/91 62/62/84
f 49/49/91 50/50/92 62/62/84
f 50/50/92 51/51/93 62/62/84
f 51/51/93 52/52/94 62/62/84
f 52/52/94 53/53/95 62/62/84
f 53/53/95 54/54/96 62/62/84
f 54/54/96 55/55/97 62/62/84
f 55/55/97 56/56/98 62/62/84
f 56/56/98 57/57/99 62/62/84
f 57/57/99 58/58/100 62/62/84
f 58/58/100 59/59/101 62/62/84
f 59/59/101 60/60/102 62/62/84
f 60/60/102 41/41/82 62/62/84
s 1
f 64/64/60 63/63/42 41/41/103 60/60/104
f 65/65/59 64/64/60 60/60/104 59/59/105
f 66/66/58 65/65/59 59/59/105 58/58/106
f 67/67/57 66/66/58 58/58/106 57/57/107
f 68/68/56 67/67/57 57/57/107 56/56/108
f 69/69/55 68/68/56 56/56/108 55/55/109
f 70/70/54 69/69/55 55/55/109 54/54/110
f 71/71/53 70/70/54 54/54/110 53/53/111
f 72/72/52 71/71/53 53/53/111 52/52/112
f 73/73/51 72/72/52 52/52/112 51/51/113
f 74/74/50 73/73/51 51/51/113 50/50/114
f 75/75/49 74/74/50 50/50/114 49/49/115
f 76/76/48 75/75/49 49/49/115 48/48/116
f 77/77/47 76/76/48 48/48/116 47/47/117
f 78/78/46 77/77/47 47/47/117 46/46/118
f 79/79/45 78/78/46 46/46/118 45/45/119
f 80/80/44 79/79/45 45/45/119 44/44/120
f 81/81/43 80/80/44 44/44/120 43/43/121
f 82/82/41 81/81/43 43/43/121 42/42/122
f 63/63/42 82/82/41 42/42/122 41/41/103
g default
v 1616.613972 466.513441 1182.699715
v 1622.737716 447.918720 1144.240413
v 1630.966525 418.578955 1113.681492
v 1640.494902 381.366149 1094.014279
v 1650.390140 339.922952 1087.163941
v 1630.355679 361.880995 1378.704858
v 1621.828770 401.811308 1364.731903
v 1619.654909 422.268675 1325.455216
v 1616.674808 443.650977 1285.986160
v 1612.035842 467.819737 1272.564016
v 1613.194742 472.542872 1225.294734
v 893.125293 299.459778 1148.269985
v 899.249037 280.865057 1109.810683
v 907.477847 251.525292 1079.251762
v 917.006223 214.312486 1059.584549
v 926.901462 172.869289 1052.734211
v 906.918207 194.842043 1343.150981
v 898.391325 234.772362 1329.178038
v 896.217436 255.229728 1289.901339
v 893.237335 276.612031 1250.432273
v 888.547163 300.766073 1238.134286
v 889.706064 305.489209 1190.865004
v 1113.806807 216.025766 1061.628753
v 1103.911568 257.468963 1068.479091
v 1094.383193 294.681764 1088.146304
v 1097.147030 310.245733 1121.080445
v 1076.814113 329.108092 1154.784974
v 1076.611409 348.645686 1199.759546
v 1075.452508 343.922550 1247.028828
v 1080.129447 319.764705 1259.617233
v 1083.109520 298.382396 1299.086287
v 1085.283437 277.925036 1338.362978
v 1093.810319 237.994717 1352.335931
vt 0.482261 0.725965
vt 0.457366 0.726711
vt 0.432466 0.727257
vt 0.407562 0.727915
vt 0.382651 0.728574
vt 0.627173 0.720732
vt 0.602262 0.721550
vt 0.576689 0.722732
vt 0.550729 0.723589
vt 0.534564 0.724277
vt 0.507151 0.725157
vt 0.469586 0.296212
vt 0.444766 0.296943
vt 0.419937 0.298138
vt 0.395062 0.299016
vt 0.370161 0.299900
vt 0.613972 0.292076
vt 0.589072 0.292740
vt 0.563512 0.293779
vt 0.537595 0.294468
vt 0.521757 0.295037
vt 0.494415 0.295671
vt 0.374295 0.410480
vt 0.399214 0.409721
vt 0.424144 0.408951
vt 0.444913 0.412767
vt 0.468577 0.403942
vt 0.496805 0.406753
vt 0.524277 0.405973
vt 0.540246 0.405349
vt 0.566238 0.404575
vt 0.591835 0.403470
vt 0.616752 0.402717
vn -0.205010 0.897376 -0.390752
vn -0.182244 0.821214 -0.540736
vn -0.166634 0.824393 -0.540934
vn -0.187264 0.900092 -0.393405
vn -0.116446 0.634007 -0.764510
vn -0.109350 0.633561 -0.765926
vn -0.027171 0.313317 -0.949260
vn -0.027171 0.313317 -0.949260
vn 0.008807 0.165122 -0.986234
vn 0.008807 0.165122 -0.986234
vn -0.117017 0.305671 0.944919
vn -0.182913 0.631877 0.753176
vn -0.182892 0.631761 0.753278
vn -0.117017 0.305671 0.944919
vn -0.220527 0.855294 0.468870
vn -0.220527 0.855292 0.468875
vn -0.199611 0.725500 0.658639
vn -0.199440 0.724522 0.659766
vn -0.222687 0.874315 0.431258
vn -0.222584 0.873518 0.432923
vn -0.224754 0.969916 -0.093531
vn -0.219924 0.970925 -0.094540
vn 0.008807 0.165122 -0.986234
vn -0.027171 0.313317 -0.949260
vn -0.093345 0.640254 -0.762470
vn -0.115873 0.839215 -0.531311
vn -0.145865 0.913444 -0.379926
vn -0.205371 0.974354 -0.091963
vn -0.222412 0.872200 0.435660
vn -0.198984 0.721915 0.662755
vn -0.220527 0.855291 0.468876
vn -0.182884 0.631721 0.753314
vn -0.117017 0.305671 0.944919
s 1
g Stronk_onder pCylinder12
usemtl initialShadingGroup
f 83/83/123 84/84/124 108/108/125 109/109/126
f 84/84/124 85/85/127 107/107/128 108/108/125
f 85/85/127 86/86/129 106/106/130 107/107/128
f 86/86/129 87/87/131 105/105/132 106/106/130
f 88/88/133 89/89/134 114/114/135 115/115/136
f 89/89/134 90/90/137 113/113/138 114/114/135
f 90/90/137 91/91/139 112/112/140 113/113/138
f 91/91/139 92/92/141 111/111/142 112/112/140
f 92/92/141 93/93/143 110/110/144 111/111/142
f 93/93/143 83/83/123 109/109/126 110/110/144
f 106/106/130 105/105/132 98/98/145 97/97/146
f 107/107/128 106/106/130 97/97/146 96/96/147
f 108/108/125 107/107/128 96/96/147 95/95/148
f 109/109/126 108/108/125 95/95/148 94/94/149
f 110/110/144 109/109/126 94/94/149 104/104/150
f 111/111/142 110/110/144 104/104/150 103/103/151
f 112/112/140 111/111/142 103/103/151 102/102/152
f 113/113/138 112/112/140 102/102/152 101/101/153
f 114/114/135 113/113/138 101/101/153 100/100/154
f 115/115/136 114/114/135 100/100/154 99/99/155
