# This file uses meters as units for non-parametric coordinates.

mtllib Grotere steen boven.mtl
g default
v -354.263036 56.617037 -523.693785
v 221.804546 55.634626 -553.830629
v -319.289329 437.555735 -626.449062
v 194.570759 437.555735 -654.239134
v -277.079623 437.555735 -1001.952108
v 110.985915 437.555735 -1001.952108
v -277.079623 55.634626 -1001.952108
v 110.985915 55.634626 -1001.952108
v -277.169295 437.555735 -741.974080
v -298.430987 55.634626 -741.974080
v 160.482435 55.634626 -741.974080
v 160.482435 437.555735 -741.974080
v -412.320871 56.204308 -874.130170
v -374.274429 439.019744 -874.130192
v 130.944783 437.555735 -874.130192
v 130.944783 55.634626 -874.130170
v -176.370235 55.634626 -443.883038
v -176.370235 437.555735 -546.638293
v -168.366221 437.555735 -741.974080
v -219.764532 437.555735 -874.130192
v -140.641327 437.555735 -1001.952108
v -140.641327 55.634626 -1001.952108
v -219.764532 55.634626 -874.130170
v -168.366221 55.634626 -741.974080
v -43.823946 437.555735 -741.974080
v -54.162991 437.555721 -586.372935
v -54.162991 55.634640 -483.617726
v -43.823929 55.634640 -741.974080
v -79.022637 55.634626 -874.130170
v -37.382481 55.634640 -1001.952108
v -37.382481 437.555721 -1001.952108
v -79.022616 437.555721 -874.130192
v 106.541957 437.555735 -741.974080
v 71.420397 437.555735 -569.704888
v 71.420397 55.634626 -466.949655
v 106.541946 55.634626 -741.974080
v 90.901839 55.634626 -874.130170
v 87.286890 55.634626 -1001.952108
v 87.286890 437.555735 -1001.952108
v 90.901828 437.555735 -874.130204
v -328.305545 333.326299 -598.670620
v -298.430987 334.308711 -741.974080
v -387.329199 332.275027 -874.130187
v -277.079623 334.308711 -1001.952108
v -140.641327 334.308711 -1001.952108
v -37.382481 334.308718 -1001.952108
v 87.286890 334.308711 -1001.952108
v 110.985915 334.308711 -1001.952108
v 130.944783 334.308711 -874.130187
v 160.482435 334.308711 -741.974080
v 203.583817 334.308711 -624.113942
v 71.420397 334.308711 -541.926468
v -54.162989 334.308696 -558.594515
v -176.370235 334.308711 -518.859850
vt 0.098604 0.391049
vt 0.689277 0.213154
vt 0.325614 0.520137
vt 0.673202 0.472497
vt 0.058384 0.866588
vt 0.109523 0.845006
vt 0.079634 0.916932
vt 0.130775 0.895337
vt 0.366769 0.616602
vt 0.061307 0.535820
vt 0.151766 0.926843
vt 0.669308 0.616059
vt 0.068924 0.941305
vt 0.037130 0.875292
vt 0.637275 0.706357
vt 0.892712 0.766297
vt 0.123964 0.984874
vt 0.444421 0.458680
vt 0.439054 0.617123
vt 0.404274 0.704678
vt 0.076362 0.859006
vt 0.097613 0.909339
vt 0.094300 0.930588
vt 0.108429 0.945144
vt 0.521797 0.617719
vt 0.517231 0.463956
vt 0.519374 0.204657
vt 0.124842 0.938213
vt 0.112848 0.922756
vt 0.111221 0.903593
vt 0.089970 0.853262
vt 0.497779 0.705351
vt 0.621695 0.618439
vt 0.589283 0.459653
vt 0.591428 0.200352
vt 0.144658 0.929845
vt 0.135242 0.913299
vt 0.127651 0.896656
vt 0.106400 0.846325
vt 0.610672 0.706165
vt 0.347873 0.403614
vt 0.241469 0.583142
vt 0.041988 0.889884
vt 0.064116 0.880205
vt 0.082102 0.872614
vt 0.095713 0.866869
vt 0.112144 0.859932
vt 0.692008 0.803510
vt 0.713380 0.720258
vt 0.735751 0.633112
vt 0.677459 0.401790
vt 0.589865 0.389555
vt 0.517802 0.393857
vt 0.444974 0.388578
vt 0.756489 0.552355
vt 0.680599 0.560572
vt 0.684852 0.555488
vt 0.140519 0.911071
vt 0.115267 0.858613
vt 0.871339 0.849550
vt 0.210303 0.684852
vt 0.301617 0.703939
vt 0.278658 0.701459
vt 0.263038 0.487758
vt 0.339339 0.539649
vt 0.351944 0.474280
vt 0.646939 0.703202
vt 0.607659 0.791069
vt 0.625566 0.786454
vt 0.623404 0.791182
vt 0.155336 0.968044
vt 0.947816 0.551823
vt 0.170319 0.948225
vt 0.599186 0.503820
vt 0.524832 0.790472
vt 0.137858 0.972837
vt 0.515672 0.514293
vt 0.055116 0.927300
vt 0.030751 0.647434
vt 0.456230 0.789978
vt 0.434672 0.487310
vt 0.446562 0.199361
vt 0.915084 0.679156
vt 0.365585 0.789326
vt 0.091288 0.952383
vt 0.657532 0.618697
vt 0.336210 0.215786
vt 0.096078 0.984257
vt 0.310671 0.598976
vn -0.421254 0.254708 0.870442
vn -0.129505 0.269548 0.954239
vn -0.135992 0.269139 0.953452
vn -0.431806 0.253052 0.865741
vn 0.000000 1.000000 -0.000000
vn 0.000000 1.000000 -0.000000
vn 0.000947 0.999999 0.000411
vn 0.002742 0.999996 0.001191
vn 0.000000 0.000000 -1.000000
vn -0.000000 0.000000 -1.000000
vn -0.000000 0.000000 -1.000000
vn 0.000000 0.000000 -1.000000
vn -0.002856 -0.999996 0.000468
vn -0.001524 -0.999999 0.000372
vn -0.001913 -0.999998 0.000783
vn -0.003569 -0.999993 0.001461
vn 0.946366 -0.009786 -0.322947
vn 0.961264 -0.005333 -0.275576
vn 0.961068 -0.005179 -0.276262
vn 0.944726 -0.009891 -0.327712
vn -0.971039 0.030127 -0.237015
vn -0.979853 0.053636 0.192381
vn -0.982609 0.027060 0.183702
vn -0.972939 0.014340 -0.230617
vn -0.720997 0.032481 -0.692176
vn -0.995749 0.044859 -0.080448
vn -0.995462 0.062540 -0.071716
vn -0.735987 0.036675 -0.676002
vn -0.001732 -0.999998 0.000777
vn -0.000667 -1.000000 0.000299
vn -0.001233 -0.999999 -0.000072
vn -0.001750 -0.999999 -0.000203
vn 0.988028 -0.000000 -0.154276
vn 0.982355 -0.000000 -0.187028
vn 0.982355 -0.000000 -0.187028
vn 0.988028 -0.000000 -0.154276
vn 0.005289 0.999986 0.000023
vn 0.003538 0.999994 -0.000071
vn 0.001793 0.999998 -0.000804
vn 0.005032 0.999985 -0.002256
vn 0.507370 0.238259 0.828135
vn 0.242963 0.260188 0.934490
vn 0.231667 0.257798 0.938014
vn 0.499241 0.233771 0.834332
vn -0.000000 1.000000 -0.000000
vn -0.000000 1.000000 0.000000
vn 0.000000 1.000000 0.000000
vn 0.000000 1.000000 0.000000
vn -0.000000 1.000000 -0.000000
vn 0.000000 1.000000 -0.000000
vn -0.000000 1.000000 0.000000
vn 0.000000 1.000000 -0.000000
vn 0.000000 0.000000 -1.000000
vn 0.000000 0.000000 -1.000000
vn 0.000000 0.000000 -1.000000
vn 0.000000 0.000000 -1.000000
vn -0.000000 -1.000000 -0.000000
vn -0.000000 -1.000000 0.000000
vn 0.000000 -1.000000 0.000000
vn 0.000000 -1.000000 0.000000
vn -0.000000 -1.000000 -0.000000
vn 0.000000 -1.000000 0.000000
vn -0.000000 -1.000000 0.000000
vn 0.000000 -1.000000 0.000000
vn 0.000000 1.000000 0.000000
vn -0.000000 1.000000 -0.000000
vn 0.088589 0.258788 0.961863
vn 0.091515 0.258719 0.961608
vn -0.000000 -1.000000 -0.000000
vn 0.000000 -1.000000 0.000000
vn 0.000000 -1.000000 -0.000000
vn -0.000000 -1.000000 0.000000
vn 0.000000 0.000000 -1.000000
vn 0.000000 0.000000 -1.000000
vn 0.000000 1.000000 -0.000000
vn -0.000000 1.000000 0.000000
vn -0.968579 0.132064 0.210745
vn -0.958280 0.104211 -0.266156
vn -0.992761 0.112802 -0.041234
vn -0.775659 0.048221 -0.629308
vn 0.000000 0.000000 -1.000000
vn 0.000000 0.000000 -1.000000
vn 0.000000 0.000000 -1.000000
vn -0.000000 0.000000 -1.000000
vn 0.000000 0.000000 -1.000000
vn 0.982355 0.000000 -0.187028
vn 0.988028 0.000000 -0.154276
vn 0.960423 -0.004675 -0.278506
vn 0.936141 -0.010415 -0.351470
vn 0.252848 0.269120 0.929324
vn 0.529337 0.250412 0.810615
vn 0.087454 0.258814 0.961960
vn -0.146696 0.267917 0.952208
vn -0.461828 0.248097 0.851565
s 1
g Grotere_steen_boven
usemtl initialShadingGroup
f 1/87/1 17/82/2 54/54/3 41/41/4
s 2
f 3/65/5 18/81/6 19/19/7 9/9/8
s 3
f 44/44/9 45/45/10 22/22/11 7/7/12
s 4
f 10/85/13 24/24/14 17/17/15 1/88/16
s 5
f 2/72/17 11/83/18 50/50/19 51/55/20
s 6
f 41/64/21 42/42/22 10/10/23 1/1/24
f 7/7/25 13/78/26 43/43/27 44/44/28
s 4
f 7/7/29 22/22/30 23/23/31 13/13/32
s 5
f 48/48/33 49/49/34 16/16/35 8/60/36
s 2
f 14/62/37 20/20/38 21/80/39 5/84/40
s 6
f 42/42/22 43/61/27 13/79/26 10/10/23
s 2
f 9/9/8 19/19/7 20/20/38 14/62/37
s 5
f 49/49/34 50/50/19 11/83/18 16/16/35
s 4
f 13/13/32 23/23/31 24/24/14 10/85/13
s 1
f 51/51/41 52/52/42 35/35/43 2/2/44
s 2
f 33/33/45 34/74/46 4/56/47 12/86/48
f 40/40/49 33/33/45 12/86/48 15/15/50
f 39/68/51 40/40/49 15/15/50 6/70/52
s 3
f 38/38/53 47/47/54 48/59/55 8/8/56
s 4
f 37/37/57 38/38/58 8/8/59 16/58/60
f 36/36/61 37/37/57 16/58/60 11/11/62
f 35/71/63 36/36/61 11/11/62 2/73/64
s 2
f 19/19/7 18/81/6 26/77/65 25/25/66
s 1
f 53/53/67 54/54/3 17/82/2 27/27/68
s 4
f 17/17/15 24/24/14 28/28/69 27/76/70
f 24/24/14 23/23/31 29/29/71 28/28/69
f 23/23/31 22/22/30 30/30/72 29/29/71
s 3
f 22/22/11 45/45/10 46/46/73 30/30/74
s 2
f 21/80/39 20/20/38 32/32/75 31/75/76
f 20/20/38 19/19/7 25/25/66 32/32/75
f 25/25/66 26/77/65 34/74/46 33/33/45
s 1
f 52/52/42 53/53/67 27/27/68 35/35/43
s 4
f 27/76/70 28/28/69 36/36/61 35/71/63
f 28/28/69 29/29/71 37/37/57 36/36/61
f 29/29/71 30/30/72 38/38/58 37/37/57
s 3
f 30/30/74 46/46/73 47/47/54 38/38/53
s 2
f 31/75/76 32/32/75 40/40/49 39/68/51
f 32/32/75 25/25/66 33/33/45 40/40/49
s 6
f 9/89/77 42/42/22 41/64/21 3/3/78
f 14/63/79 43/61/27 42/42/22 9/89/77
f 44/44/28 43/43/27 14/14/79 5/5/80
s 3
f 5/5/81 21/21/82 45/45/10 44/44/9
f 46/46/73 45/45/10 21/21/82 31/31/83
f 47/47/54 46/46/73 31/31/83 39/39/84
f 48/59/55 47/47/54 39/39/84 6/6/85
s 5
f 15/67/86 49/49/34 48/48/33 6/69/87
f 12/12/88 50/50/19 49/49/34 15/67/86
f 51/55/20 50/50/19 12/12/88 4/57/89
s 1
f 34/34/90 52/52/42 51/51/41 4/4/91
f 26/26/92 53/53/67 52/52/42 34/34/90
f 18/18/93 54/54/3 53/53/67 26/26/92
f 41/41/4 54/54/3 18/18/93 3/66/94
