# This file uses meters as units for non-parametric coordinates.

mtllib steen op steen links.mtl
g default
v -1539.986119 394.398019 -2.083057
v -1446.076093 394.398019 17.529604
v -1535.160369 490.155597 -4.836396
v -1448.956064 490.155597 13.166963
v -1511.976192 490.155597 -89.624068
v -1428.605153 490.155597 -61.259074
v -1514.729531 394.398019 -94.449818
v -1423.906035 394.398019 -63.549304
v -1462.046583 394.398019 19.228578
v -1463.616105 490.155597 14.726529
v -1440.431929 490.155597 -70.061143
v -1436.789996 394.398019 -73.138183
vt 0.034599 0.896519
vt 0.641504 0.251860
vt 0.239383 0.506363
vt 0.518035 0.515121
vt 0.078973 0.789092
vt 0.153865 0.805533
vt 0.086502 0.854815
vt 0.143958 0.879890
vt 0.094813 0.932574
vt 0.475020 0.510847
vt 0.142395 0.802482
vt 0.134569 0.873854
vt 0.583348 0.753318
vt 0.626686 0.715043
vt 0.581765 0.226189
vt 0.108125 0.934047
vt 0.891344 0.460591
vt 0.013624 0.819426
vt 0.313114 0.824625
vt 0.301675 0.175116
vn -0.263534 0.040993 0.963779
vn -0.202967 0.042666 0.978256
vn -0.205494 0.042600 0.977731
vn -0.263534 0.040993 0.963779
vn 0.000000 1.000000 0.000000
vn 0.000000 1.000000 0.000000
vn 0.000000 1.000000 0.000000
vn 0.000000 1.000000 0.000000
vn 0.263534 0.040993 -0.963779
vn 0.320597 0.042600 -0.946257
vn 0.323040 0.042666 -0.945423
vn 0.263534 0.040993 -0.963779
vn 0.000000 -1.000000 0.000000
vn 0.000000 -1.000000 0.000000
vn 0.000000 -1.000000 0.000000
vn 0.000000 -1.000000 0.000000
vn 0.963779 0.040993 0.263534
vn 0.963779 0.040993 0.263534
vn 0.963779 0.040993 0.263534
vn 0.963779 0.040993 0.263534
vn -0.963779 0.040993 -0.263534
vn -0.963779 0.040993 -0.263534
vn -0.963779 0.040993 -0.263534
vn -0.963779 0.040993 -0.263534
vn 0.105661 0.048428 0.993222
vn 0.105661 0.048428 0.993222
vn 0.000000 1.000000 0.000000
vn 0.000000 1.000000 0.000000
vn 0.596343 0.048428 -0.801268
vn 0.596343 0.048428 -0.801268
vn 0.000000 -1.000000 0.000000
vn 0.000000 -1.000000 0.000000
s 1
g Steen_op_steen_links
usemtl initialShadingGroup
f 1/20/1 9/15/2 10/10/3 3/3/4
s 2
f 3/3/5 10/10/6 11/13/7 5/19/8
s 3
f 5/5/9 11/11/10 12/12/11 7/7/12
s 4
f 7/7/13 12/12/14 9/9/15 1/1/16
s off
f 2/2/17 8/17/18 6/14/19 4/4/20
f 7/7/21 1/1/22 3/18/23 5/5/24
s 1
f 10/10/3 9/15/2 2/2/25 4/4/26
s 2
f 11/13/7 10/10/6 4/4/27 6/14/28
s 3
f 12/12/11 11/11/10 6/6/29 8/8/30
s 4
f 9/9/15 12/12/14 8/8/31 2/16/32
