# This file uses meters as units for non-parametric coordinates.

mtllib Grote  steen bij het water.mtl
g default
v 1271.870432 -18.878478 -495.084435
v 1920.745702 -18.878478 -422.378326
v 1336.528033 211.959519 -528.769855
v 1862.788841 211.959519 -439.670909
v 1567.151118 211.959519 -714.306082
v 1932.230081 211.959519 -521.194607
v 1531.078165 -18.878478 -741.375427
v 1997.222740 -18.878478 -543.715731
v 1390.441861 211.959519 -430.288442
v 1350.145846 -18.878478 -387.765537
v 1513.336283 211.959519 -403.634962
v 1491.814804 -18.878478 -366.782097
v 1592.516977 211.959519 -327.932215
v 1582.681935 -18.878478 -284.887861
v 1714.718315 211.959519 -330.650604
v 1742.550840 -18.878478 -296.231207
v 1767.534659 211.959519 -397.554705
v 1805.177336 -18.878478 -378.362977
vt 0.112132 0.071254
vt 0.828490 0.270369
vt 0.210811 0.712912
vt 0.731125 0.588947
vt 0.055512 0.065510
vt 0.868849 0.519007
vt 0.016676 0.087044
vt 0.969238 0.299497
vt 0.217712 0.498336
vt 0.177253 0.263132
vt 0.343623 0.493146
vt 0.320711 0.259018
vt 0.452330 0.477850
vt 0.442183 0.242550
vt 0.574819 0.478197
vt 0.602783 0.244323
vt 0.659139 0.491860
vt 0.704903 0.261187
vt 0.633088 0.553147
vt 0.763158 0.500405
vt 0.575842 0.489748
vt 0.453471 0.495128
vt 0.379313 0.576071
vt 0.258195 0.610866
vt 0.805963 0.665863
vt 0.108703 0.526184
vt 0.453710 0.883151
vt 0.055399 0.108758
vt 0.064005 0.100296
vt 0.053018 0.118553
vt 0.039171 0.125830
vt 0.027840 0.122068
vt 0.014354 0.125742
vt 0.066089 0.086454
vt 0.075522 0.042135
vt 0.003153 0.119215
vt 0.008346 0.039152
vt 0.018065 0.009177
vt 0.047203 0.291520
vt 0.086087 0.089271
vn 0.578984 0.169394 0.797548
vn 0.573462 0.168957 0.801620
vn 0.373939 0.149763 0.915282
vn 0.373939 0.149763 0.915282
vn -0.000000 1.000000 -0.000000
vn -0.000000 1.000000 -0.000000
vn -0.000000 1.000000 -0.000000
vn -0.000000 1.000000 -0.000000
vn -0.000000 1.000000 -0.000000
vn -0.000000 1.000000 -0.000000
vn -0.000000 1.000000 -0.000000
vn -0.000000 1.000000 -0.000000
vn -0.000000 1.000000 -0.000000
vn 0.422221 0.122919 -0.898121
vn 0.422221 0.122919 -0.898121
vn 0.422221 0.122919 -0.898121
vn 0.422221 0.122919 -0.898121
vn 0.000000 -1.000000 0.000000
vn 0.000000 -1.000000 0.000000
vn 0.000000 -1.000000 0.000000
vn 0.000000 -1.000000 0.000000
vn 0.000000 -1.000000 0.000000
vn 0.000000 -1.000000 0.000000
vn 0.000000 -1.000000 0.000000
vn 0.000000 -1.000000 0.000000
vn 0.000000 -1.000000 0.000000
vn 0.794541 0.205123 0.571515
vn 0.794541 0.205123 0.571515
vn 0.794541 0.205123 0.571515
vn 0.794541 0.205123 0.571515
vn -0.655479 0.132360 -0.743524
vn -0.655479 0.132360 -0.743524
vn -0.655479 0.132360 -0.743524
vn -0.655479 0.132360 -0.743524
vn -0.810122 0.270061 0.520356
vn -0.521712 0.247927 0.816302
vn -0.523437 0.248151 0.815129
vn -0.810122 0.270061 0.520356
vn -0.421423 0.187927 0.887179
vn -0.416550 0.188088 0.889443
vn -0.290849 0.182332 0.939235
vn -0.304834 0.182505 0.934756
vn 0.374363 0.188438 0.907934
vn 0.370498 0.188300 0.909546
s 1
g Groote_steen_bij_het_water
usemtl initialShadingGroup
f 17/17/1 18/18/2 2/2/3 4/20/4
s off
f 3/3/5 9/24/6 11/23/7 13/22/8 15/21/9 17/19/10 4/4/11 6/25/12 5/27/13
f 5/5/14 6/37/15 8/38/16 7/35/17
f 7/7/18 8/34/19 2/29/20 18/28/21 16/30/22 14/31/23 12/32/24 10/33/25 1/36/26
f 2/2/27 8/8/28 6/6/29 4/20/30
f 7/35/31 1/1/32 3/40/33 5/5/34
s 1
f 1/39/35 10/10/36 9/9/37 3/26/38
f 9/9/37 10/10/36 12/12/39 11/11/40
f 11/11/40 12/12/39 14/14/41 13/13/42
f 13/13/42 14/14/41 16/16/43 15/15/44
f 15/15/44 16/16/43 18/18/2 17/17/1
