# This file uses meters as units for non-parametric coordinates.

mtllib Kleinsteentje.mtl
g default
v -222.675752 118.758193 1183.612135
v -157.617835 118.758193 1202.383647
v -52.176372 118.758193 1183.612135
v -218.568554 135.408655 1180.474194
v -157.617835 135.408655 1199.245707
v -60.117220 135.408655 1180.474194
v -223.929174 135.408655 1133.101905
v -51.888944 135.408655 1133.101905
v -242.751538 135.408655 1090.999495
v -171.693100 135.408655 1085.729617
v -44.449927 135.408655 1098.058477
v -224.675908 135.408655 1033.087423
v -171.693100 135.408655 1033.087423
v -67.809098 135.408655 1038.357323
v -228.783106 118.758193 1033.087423
v -171.693100 118.758193 1033.087423
v -59.868261 118.758193 1038.357323
v -246.858726 118.758193 1090.999489
v -171.693100 118.758173 1085.729611
v -36.509080 118.758193 1098.058471
v -228.036367 118.758193 1133.101900
v -171.693100 118.758173 1133.101900
v -43.948097 118.758193 1133.101900
v -206.974062 195.762476 1172.564807
v -157.617835 192.223791 1191.336324
v -147.510118 192.223780 1133.101905
v -194.666676 192.223791 1133.101905
v -84.679947 192.223791 1172.564807
v -76.451682 192.223791 1133.101905
v -147.510118 192.223791 1075.393231
v -202.058264 192.223791 1075.393231
v -69.012676 192.223791 1098.058477
v -92.371825 192.223791 1038.357323
v -147.510118 192.223791 1038.357323
vt 0.152126 0.382014
vt 0.913213 0.274190
vt 0.862374 0.136229
vt 0.179499 0.406822
vt 0.339630 0.325255
vt 0.591974 0.394677
vt 0.139433 0.537526
vt 0.373791 0.548569
vt 0.648618 0.513382
vt 0.134777 0.672173
vt 0.277203 0.739327
vt 0.660019 0.611396
vt 0.194754 0.824373
vt 0.326013 0.840843
vt 0.595806 0.771107
vt 0.701614 0.411260
vt 0.687823 0.334107
vt 0.631678 0.792739
vt 0.098912 0.679949
vt 0.758965 0.321391
vt 0.699300 0.615788
vt 0.101574 0.533253
vt 0.822985 0.309948
vt 0.688865 0.505700
vt 0.277726 0.474680
vt 0.356579 0.434952
vt 0.274069 0.546255
vt 0.497483 0.464123
vt 0.521799 0.537822
vt 0.370238 0.662669
vt 0.263558 0.639467
vt 0.539826 0.604019
vt 0.493051 0.711751
vt 0.398682 0.724041
vt 0.792126 0.137311
vt 0.623701 0.367384
vt 0.836595 0.386091
vt 0.903561 0.366645
vt 0.742971 0.135723
vt 0.784244 0.421698
vt 0.667933 0.181712
vt 0.168123 0.848159
vt 0.329580 0.878528
vt 0.336641 0.287941
vn -0.279109 0.210973 0.936797
vn 0.000160 0.223920 0.974608
vn -0.001677 0.188701 0.982033
vn -0.305168 0.170844 0.936848
vn 0.177329 0.222937 0.958568
vn 0.202385 0.191330 0.960434
vn 0.041792 0.998772 -0.026588
vn 0.019569 0.999731 -0.012450
vn 0.007374 0.999962 -0.004691
vn 0.019770 0.999725 -0.012578
vn -0.000000 1.000000 -0.000000
vn -0.000000 1.000000 -0.000000
vn 0.000000 1.000000 0.000000
vn 0.000000 1.000000 0.000000
vn -0.000000 1.000000 0.000000
vn 0.000000 1.000000 0.000000
vn 0.000000 1.000000 0.000000
vn 0.000000 1.000000 0.000000
vn 0.000000 1.000000 0.000000
vn 0.000000 1.000000 0.000000
vn 0.000000 1.000000 0.000000
vn 0.000000 0.000000 -1.000000
vn 0.032804 0.031612 -0.998962
vn 0.032334 0.007710 -0.999447
vn 0.000000 0.000000 -1.000000
vn 0.037779 0.036044 -0.998636
vn 0.048800 0.011637 -0.998741
vn -0.000000 -1.000000 -0.000000
vn 0.000000 -1.000000 -0.000000
vn 0.000000 -1.000000 -0.000000
vn -0.000000 -1.000000 -0.000000
vn 0.000000 -1.000000 -0.000000
vn 0.000000 -1.000000 -0.000000
vn -0.000000 -1.000000 0.000000
vn -0.000000 -1.000000 0.000000
vn 0.000000 -1.000000 0.000000
vn 0.000000 -1.000000 0.000000
vn -0.000000 -1.000000 0.000000
vn 0.000000 -1.000000 0.000000
vn 0.892496 0.425644 -0.149262
vn 0.851091 0.405897 -0.333005
vn 0.861088 0.380808 -0.336916
vn 0.903877 0.400052 -0.151543
vn 0.886958 0.431147 0.165586
vn 0.897380 0.404469 0.176392
vn 0.886981 0.437066 0.149124
vn 0.896910 0.410210 0.165169
vn -0.929171 0.229200 -0.290015
vn -0.970875 0.239487 0.006882
vn -0.884190 0.442940 0.148367
vn -0.929171 0.229200 -0.290015
vn -0.938821 0.236767 0.250112
vn -0.904932 0.408323 0.119874
vn -0.963124 0.247516 0.105493
vn -0.951212 0.305696 -0.041789
vn -0.040672 0.175128 0.983705
vn -0.313650 0.157458 0.936392
vn -0.942375 0.322631 -0.088537
vn -0.900203 0.431629 0.057707
vn 0.211623 0.179491 0.960728
vn 0.900516 0.395930 0.179750
vn 0.900060 0.400994 0.170575
vn -0.041071 -0.200047 -0.978925
vn -0.041071 -0.200047 -0.978925
vn -0.041071 -0.200047 -0.978925
vn -0.041071 -0.200047 -0.978925
vn -0.818214 0.533242 0.214892
vn 0.907077 0.392154 -0.153056
vn 0.863869 0.373474 -0.338004
vn 0.033085 0.046413 -0.998374
vn 0.033085 0.046413 -0.998374
vn -0.920118 0.391642 0.000000
vn -0.920118 0.391642 0.000000
vn -0.920118 0.391642 0.000000
vn -0.920118 0.391642 0.000000
s 1
g Kleine_steen_onderin
usemtl initialShadingGroup
f 1/1/1 2/44/2 5/5/3 4/4/4
f 2/44/2 3/36/5 6/6/6 5/5/3
s 2
f 24/25/7 25/26/8 26/8/9 27/27/10
f 25/26/8 28/28/11 29/29/12 26/8/9
f 27/27/10 26/8/9 30/30/13 31/31/14
f 26/8/9 29/29/12 32/32/15 30/30/13
s off
f 9/10/16 10/11/17 13/14/18 12/13/19
s 2
f 30/30/13 32/32/15 33/33/20 34/34/21
s 3
f 12/13/22 13/14/23 16/43/24 15/42/25
f 13/14/23 14/15/26 17/18/27 16/43/24
s 4
f 15/16/28 16/17/29 19/20/30 18/40/31
f 16/17/29 17/41/32 20/39/33 19/20/30
f 18/40/31 19/20/30 22/23/34 21/37/35
f 19/20/30 20/39/33 23/35/36 22/23/34
f 21/37/35 22/23/34 2/2/37 1/38/38
f 22/23/34 23/35/36 3/3/39 2/2/37
s 5
f 20/21/40 17/18/41 14/15/42 11/12/43
f 23/24/44 20/21/40 11/12/43 8/9/45
f 3/36/46 23/24/44 8/9/45 6/6/47
s 6
f 15/42/48 18/19/49 9/10/50 12/13/51
f 18/19/49 21/22/52 7/7/53 9/10/50
f 21/22/52 1/1/54 4/4/55 7/7/53
s 1
f 4/4/4 5/5/3 25/26/56 24/25/57
s 6
f 7/7/53 4/4/55 24/25/58 27/27/59
s 1
f 5/5/3 6/6/6 28/28/60 25/26/56
s 5
f 6/6/47 8/9/45 29/29/61 28/28/62
s off
f 10/11/63 9/10/64 31/31/65 30/30/66
s 6
f 9/10/50 7/7/53 27/27/59 31/31/67
s 5
f 8/9/45 11/12/43 32/32/68 29/29/61
f 11/12/43 14/15/42 33/33/69 32/32/68
s 3
f 14/15/26 13/14/23 34/34/70 33/33/71
s off
f 13/14/72 10/11/73 30/30/74 34/34/75
