# This file uses meters as units for non-parametric coordinates.

mtllib steen bij water.mtl
g default
v 2081.097268 -31.596776 -1109.492443
v 2269.211985 -31.596776 -1109.492443
v 2102.724621 179.404353 -1127.902441
v 2247.584645 179.404353 -1127.902441
v 2074.831904 179.404353 -1274.956018
v 2247.584645 179.404353 -1274.956018
v 2053.204564 -31.596776 -1293.366016
v 2269.211985 -31.596776 -1293.366016
vt 0.375000 0.000000
vt 0.625000 0.000000
vt 0.375000 0.250000
vt 0.625000 0.250000
vt 0.375000 0.500000
vt 0.625000 0.500000
vt 0.375000 0.750000
vt 0.625000 0.750000
vt 0.375000 1.000000
vt 0.625000 1.000000
vt 0.875000 0.000000
vt 0.875000 0.250000
vt 0.125000 0.000000
vt 0.125000 0.250000
vn 0.000000 0.086920 0.996215
vn 0.000000 0.086920 0.996215
vn 0.000000 0.086920 0.996215
vn 0.000000 0.086920 0.996215
vn 0.000000 1.000000 0.000000
vn 0.000000 1.000000 0.000000
vn 0.000000 1.000000 0.000000
vn 0.000000 1.000000 0.000000
vn 0.000000 0.086920 -0.996215
vn 0.000000 0.086920 -0.996215
vn 0.000000 0.086920 -0.996215
vn 0.000000 0.086920 -0.996215
vn 0.000000 -1.000000 -0.000000
vn 0.000000 -1.000000 -0.000000
vn 0.000000 -1.000000 -0.000000
vn 0.000000 -1.000000 -0.000000
vn 0.994788 0.101964 0.000000
vn 0.994788 0.101964 0.000000
vn 0.994788 0.101964 0.000000
vn 0.994788 0.101964 0.000000
vn -0.981089 0.100560 0.165385
vn -0.981089 0.100560 0.165385
vn -0.981089 0.100560 0.165385
vn -0.981089 0.100560 0.165385
s off
g Steen_bij_het_water
usemtl initialShadingGroup
f 1/1/1 2/2/2 4/4/3 3/3/4
f 3/3/5 4/4/6 6/6/7 5/5/8
f 5/5/9 6/6/10 8/8/11 7/7/12
f 7/7/13 8/8/14 2/10/15 1/9/16
f 2/2/17 8/11/18 6/12/19 4/4/20
f 7/13/21 1/1/22 3/3/23 5/14/24
